<svg width="464" height="519" viewBox="0 0 464 519" fill="none" xmlns="http://www.w3.org/2000/svg">
<g clip-path="url(#clip0)">
<g filter="url(#filter0_d)">
<path d="M79.6044 171.931C36.4671 113.421 65.5561 35.4625 65.5561 35.4625C66.109 72.8704 72.849 88.1723 93.6522 107.711L232.128 278.297L370.607 107.711C391.41 88.1723 398.15 72.8704 398.703 35.4625C398.703 35.4625 427.792 113.421 384.655 171.931C354.521 212.804 348.531 252.207 348.531 252.207C350.631 262.084 404.672 219.642 430.813 179.959C406.215 228.4 394.13 259.96 348.531 296.359C371.166 291.599 383.636 287.694 404.724 274.283C392.682 300.373 354.551 328.971 312.407 360.58C260.135 399.783 298.358 410.752 266.248 434.835C234.138 458.918 232.131 458.918 232.131 458.918C232.131 458.918 230.122 458.918 198.011 434.835C165.901 410.752 204.124 399.783 151.853 360.58C109.708 328.971 71.5768 300.373 59.5354 274.283C80.6236 287.694 93.0928 291.599 115.729 296.359C70.1296 259.96 58.0444 228.4 33.4458 179.959C59.587 219.642 113.628 262.084 115.729 252.207C115.729 252.207 109.739 212.804 79.6044 171.931Z" fill="url(#paint0_radial)"/>
</g>
<g filter="url(#filter1_d)">
<path d="M127.77 23.4211C127.77 23.4211 91.6453 51.5177 93.6522 107.711C94.8488 141.218 119.192 154.815 133.791 181.966C153.049 214.211 122.5 263 122.5 263C122.5 263 97.7282 311.796 150 351C202.272 390.204 165.901 410.752 198.011 434.835C230.122 458.918 232.131 458.918 232.131 458.918C232.131 458.918 234.14 458.918 266.25 434.835C298.36 410.752 261.99 390.204 314.261 351C366.533 311.796 341.761 263 341.761 263C341.761 263 311.212 214.211 330.471 181.966C345.07 154.815 369.413 141.218 370.609 107.711C372.616 51.5177 336.491 23.4211 336.491 23.4211C336.491 23.4211 359.073 89.6558 310.402 135.807C270.688 173.465 262.099 211.741 232.128 244.18C202.158 211.741 193.574 173.465 153.86 135.807C105.188 89.6558 127.77 23.4211 127.77 23.4211Z" fill="url(#paint1_linear)"/>
</g>
<g filter="url(#filter2_i)">
<path fill-rule="evenodd" clip-rule="evenodd" d="M171.75 255.963C171.807 256.049 171.865 256.135 171.922 256.221C181.024 270.023 202.025 312.414 202.025 312.414C202.025 312.414 161.162 298.523 151.853 282.311C144.731 269.908 145.832 238.159 145.832 238.159C145.832 238.159 157.937 240.304 167.696 250.833C164.278 263.515 165.98 271.395 169.915 277.297C169.915 275.308 169.832 273.835 169.758 272.525C169.539 268.639 169.4 266.187 171.75 255.963ZM292.509 255.963C292.452 256.048 292.395 256.135 292.338 256.221C283.235 270.023 262.234 312.414 262.234 312.414C262.234 312.414 303.097 298.523 312.407 282.311C319.528 269.908 318.427 238.159 318.427 238.159C318.427 238.159 306.322 240.304 296.563 250.833C299.981 263.515 298.279 271.395 294.344 277.297C294.344 275.308 294.428 273.835 294.501 272.525L294.501 272.525C294.721 268.639 294.859 266.187 292.509 255.963Z" fill="url(#paint2_linear)"/>
</g>
<g filter="url(#filter3_i)">
<path d="M198.011 402.724C203.378 411.353 202 423.264 216.073 426.807L198.011 402.724Z" fill="url(#paint3_linear)"/>
<path d="M266.248 402.724C260.881 411.353 262.259 423.264 248.186 426.807L266.248 402.724Z" fill="url(#paint4_linear)"/>
</g>
<g filter="url(#filter4_d)">
<path d="M246.795 81L231.637 107.255L216.479 81H166L231.637 194.688L297.274 81H246.795Z" fill="url(#paint5_linear)"/>
<path d="M246.795 81L231.637 107.255L216.479 81H192.255L231.637 149.211L271.019 81H246.795Z" fill="url(#paint6_linear)"/>
</g>
</g>
<defs>
<filter id="filter0_d" x="3.4458" y="5.4625" width="457.368" height="483.455" filterUnits="userSpaceOnUse" color-interpolation-filters="sRGB">
<feFlood flood-opacity="0" result="BackgroundImageFix"/>
<feColorMatrix in="SourceAlpha" type="matrix" values="0 0 0 0 0 0 0 0 0 0 0 0 0 0 0 0 0 0 127 0"/>
<feOffset/>
<feGaussianBlur stdDeviation="15"/>
<feColorMatrix type="matrix" values="0 0 0 0 0 0 0 0 0 0 0 0 0 0 0 0 0 0 0.25 0"/>
<feBlend mode="normal" in2="BackgroundImageFix" result="effect1_dropShadow"/>
<feBlend mode="normal" in="SourceGraphic" in2="effect1_dropShadow" result="shape"/>
</filter>
<filter id="filter1_d" x="63.5715" y="-6.57887" width="337.118" height="495.496" filterUnits="userSpaceOnUse" color-interpolation-filters="sRGB">
<feFlood flood-opacity="0" result="BackgroundImageFix"/>
<feColorMatrix in="SourceAlpha" type="matrix" values="0 0 0 0 0 0 0 0 0 0 0 0 0 0 0 0 0 0 127 0"/>
<feOffset/>
<feGaussianBlur stdDeviation="15"/>
<feColorMatrix type="matrix" values="0 0 0 0 0 0 0 0 0 0 0 0 0 0 0 0 0 0 0.25 0"/>
<feBlend mode="normal" in2="BackgroundImageFix" result="effect1_dropShadow"/>
<feBlend mode="normal" in="SourceGraphic" in2="effect1_dropShadow" result="shape"/>
</filter>
<filter id="filter2_i" x="145.771" y="238.159" width="172.718" height="74.2551" filterUnits="userSpaceOnUse" color-interpolation-filters="sRGB">
<feFlood flood-opacity="0" result="BackgroundImageFix"/>
<feBlend mode="normal" in="SourceGraphic" in2="BackgroundImageFix" result="shape"/>
<feColorMatrix in="SourceAlpha" type="matrix" values="0 0 0 0 0 0 0 0 0 0 0 0 0 0 0 0 0 0 127 0" result="hardAlpha"/>
<feOffset/>
<feGaussianBlur stdDeviation="4"/>
<feComposite in2="hardAlpha" operator="arithmetic" k2="-1" k3="1"/>
<feColorMatrix type="matrix" values="0 0 0 0 1 0 0 0 0 1 0 0 0 0 1 0 0 0 0.5 0"/>
<feBlend mode="normal" in2="shape" result="effect1_innerShadow"/>
</filter>
<filter id="filter3_i" x="198.011" y="402.724" width="68.2367" height="28.0827" filterUnits="userSpaceOnUse" color-interpolation-filters="sRGB">
<feFlood flood-opacity="0" result="BackgroundImageFix"/>
<feBlend mode="normal" in="SourceGraphic" in2="BackgroundImageFix" result="shape"/>
<feColorMatrix in="SourceAlpha" type="matrix" values="0 0 0 0 0 0 0 0 0 0 0 0 0 0 0 0 0 0 127 0" result="hardAlpha"/>
<feOffset dy="4"/>
<feGaussianBlur stdDeviation="2"/>
<feComposite in2="hardAlpha" operator="arithmetic" k2="-1" k3="1"/>
<feColorMatrix type="matrix" values="0 0 0 0 1 0 0 0 0 1 0 0 0 0 1 0 0 0 0.25 0"/>
<feBlend mode="normal" in2="shape" result="effect1_innerShadow"/>
</filter>
<filter id="filter4_d" x="136" y="51" width="191.274" height="173.688" filterUnits="userSpaceOnUse" color-interpolation-filters="sRGB">
<feFlood flood-opacity="0" result="BackgroundImageFix"/>
<feColorMatrix in="SourceAlpha" type="matrix" values="0 0 0 0 0 0 0 0 0 0 0 0 0 0 0 0 0 0 127 0"/>
<feOffset/>
<feGaussianBlur stdDeviation="15"/>
<feColorMatrix type="matrix" values="0 0 0 0 0 0 0 0 0 0 0 0 0 0 0 0 0 0 0.25 0"/>
<feBlend mode="normal" in2="BackgroundImageFix" result="effect1_dropShadow"/>
<feBlend mode="normal" in="SourceGraphic" in2="effect1_dropShadow" result="shape"/>
</filter>
<radialGradient id="paint0_radial" cx="0" cy="0" r="1" gradientUnits="userSpaceOnUse" gradientTransform="translate(232 459) rotate(-90) scale(342 320.931)">
<stop stop-color="#EEEEEE"/>
<stop offset="0.520833" stop-color="white"/>
<stop offset="1" stop-color="#E22BD0"/>
</radialGradient>
<linearGradient id="paint1_linear" x1="232.065" y1="23.4211" x2="232.065" y2="458.918" gradientUnits="userSpaceOnUse">
<stop stop-color="#8A2BE2"/>
<stop offset="0.515625" stop-color="white"/>
<stop offset="1" stop-color="#EEEEEE"/>
</linearGradient>
<linearGradient id="paint2_linear" x1="232.13" y1="238.159" x2="232.13" y2="312.414" gradientUnits="userSpaceOnUse">
<stop stop-color="#8A2BE2"/>
<stop offset="1" stop-color="#E22BD0"/>
</linearGradient>
<linearGradient id="paint3_linear" x1="232.13" y1="402.724" x2="232.13" y2="426.807" gradientUnits="userSpaceOnUse">
<stop stop-color="#8A2BE2"/>
<stop offset="1" stop-color="#E22BD0"/>
</linearGradient>
<linearGradient id="paint4_linear" x1="232.13" y1="402.724" x2="232.13" y2="426.807" gradientUnits="userSpaceOnUse">
<stop stop-color="#8A2BE2"/>
<stop offset="1" stop-color="#E22BD0"/>
</linearGradient>
<linearGradient id="paint5_linear" x1="231.637" y1="194.688" x2="231.637" y2="81" gradientUnits="userSpaceOnUse">
<stop stop-color="#EEEEEE"/>
<stop offset="1" stop-color="#E22BD0"/>
</linearGradient>
<linearGradient id="paint6_linear" x1="231.637" y1="149.211" x2="231.637" y2="81" gradientUnits="userSpaceOnUse">
<stop stop-color="#EEEEEE"/>
<stop offset="1" stop-color="#8A2BE2"/>
</linearGradient>
<clipPath id="clip0">
<path d="M0 0H464V519H0V0Z" fill="white"/>
</clipPath>
</defs>
</svg>
