<svg width="1055" height="240" viewBox="0 0 1055 240" fill="none" xmlns="http://www.w3.org/2000/svg">
<path d="M49.1163 25.56L73.0203 101.304C75.9003 110.52 78.9723 120.888 82.2363 132.408C85.5003 143.736 88.3803 155.16 90.8763 166.68H91.7403C94.2363 155.16 97.0203 143.736 100.092 132.408C103.356 121.08 106.524 110.616 109.596 101.016L133.212 25.56H178.14L115.644 207H66.9723L2.74825 25.56H49.1163ZM198.883 25.56H242.659V134.136C242.659 147.768 245.443 158.328 251.011 165.816C256.579 173.304 265.219 177.048 276.931 177.048C288.451 177.048 296.707 173.4 301.699 166.104C306.883 158.616 309.475 149.112 309.475 137.592V25.56H353.251V133.848C353.251 184.728 327.811 210.168 276.931 210.168C252.739 210.168 233.635 203.832 219.619 191.16C205.795 178.488 198.883 158.904 198.883 132.408V25.56ZM391.258 25.56H512.218V58.968H435.034V96.12H504.73V129.24H435.034V173.592H513.082V207H391.258V25.56ZM581.464 25.56L617.752 86.328L653.176 25.56H703.864L645.688 114.84L706.744 207H654.616L614.872 143.352L577.72 207H527.32L586.072 114.84L529.912 25.56H581.464ZM730.164 25.56H851.124V58.968H773.94V96.12H843.636V129.24H773.94V173.592H851.988V207H730.164V25.56ZM880.914 25.56H921.234L960.978 86.328C968.082 97.272 974.898 108.504 981.426 120.024C988.146 131.352 993.33 141.624 996.978 150.84H997.554C996.594 139.32 996.018 127.8 995.826 116.28C995.634 104.568 995.538 92.952 995.538 81.432V25.56H1035.86V207H995.538L953.49 145.08C946.578 134.904 940.242 124.536 934.482 113.976C928.722 103.416 923.826 92.28 919.794 80.568H919.218C920.178 92.664 920.754 104.28 920.946 115.416C921.138 126.552 921.234 137.88 921.234 149.4V207H880.914V25.56Z" fill="url(#paint0_linear)"/>
<defs>
<linearGradient id="paint0_linear" x1="3.93018e-06" y1="70.0789" x2="1022.44" y2="317.873" gradientUnits="userSpaceOnUse">
<stop stop-color="#8A2BE2"/>
<stop offset="1" stop-color="#E22BD0"/>
</linearGradient>
</defs>
</svg>
